<svg xmlns="http://www.w3.org/2000/svg" viewBox="0 0 512 512">
  <defs>
    <linearGradient id="grad3" x1="0%" y1="0%" x2="100%" y2="100%">
      <stop offset="0%" style="stop-color:#1976d2;stop-opacity:1" />
      <stop offset="50%" style="stop-color:#5e35b1;stop-opacity:1" />
      <stop offset="100%" style="stop-color:#7b1fa2;stop-opacity:1" />
    </linearGradient>
    <filter id="shadow">
      <feDropShadow dx="0" dy="4" stdDeviation="8" flood-opacity="0.3"/>
    </filter>
  </defs>

  <!-- Background circle -->
  <circle cx="256" cy="256" r="240" fill="url(#grad3)" filter="url(#shadow)"/>

  <!-- Main checkmark -->
  <path d="M150 260 L220 330 L370 170"
        stroke="white"
        stroke-width="42"
        stroke-linecap="round"
        stroke-linejoin="round"
        fill="none"/>

  <!-- Folder icon -->
  <g transform="translate(310, 330) scale(2.2)">
    <path d="M10 4H4c-1.1 0-1.99.9-1.99 2L2 18c0 1.1.9 2 2 2h16c1.1 0 2-.9 2-2V8c0-1.1-.9-2-2-2h-8l-2-2z"
          fill="white"
          opacity="0.95"/>
  </g>

  <!-- Decorative elements -->
  <circle cx="80" cy="80" r="12" fill="white" opacity="0.25"/>
  <circle cx="432" cy="80" r="12" fill="white" opacity="0.25"/>
  <circle cx="80" cy="432" r="12" fill="white" opacity="0.25"/>
  <circle cx="432" cy="432" r="12" fill="white" opacity="0.25"/>

  <!-- Project Manager text outline -->
  <text x="256" y="460" font-family="Arial, sans-serif" font-size="32" font-weight="bold" text-anchor="middle" fill="white" opacity="0.9">
    PM
  </text>
</svg>
